<svg width="120" height="121" viewBox="0 0 120 121" fill="none" xmlns="http://www.w3.org/2000/svg">
<path d="M54.9397 49.2251C44.8192 39.0905 36.1445 33.2993 34.6987 34.7471C33.2529 36.1949 39.0361 43.4339 49.1566 55.0163C21.6866 55.0163 1.44562 57.9119 1.44562 60.8075C1.44562 63.7031 21.6866 66.5987 49.1566 66.5987C39.0361 76.7333 33.2529 85.4201 34.6987 86.8679C36.1445 88.3157 43.3734 82.5245 54.9397 72.3899C54.9397 99.8981 57.8312 120.167 60.7228 120.167C63.6144 120.167 66.506 99.8981 66.506 72.3899C76.6265 82.5245 85.3012 88.3157 86.7469 86.8679C88.1927 85.4201 80.9638 78.1811 72.2891 66.5987C99.759 66.5987 120 63.7031 120 60.8075C120 57.9119 99.759 55.0163 72.2891 55.0163C82.4096 44.8817 88.1927 36.1949 86.7469 34.7471C85.3012 33.2993 78.0723 40.5383 66.506 49.2251C66.506 21.7169 63.6144 1.44775 60.7228 1.44775C57.8312 1.44775 56.3854 21.7169 54.9397 49.2251ZM60.7228 53.5685C63.6144 53.5685 66.506 56.4641 66.506 59.3597C66.506 62.2553 63.6144 65.1509 60.7228 65.1509C57.8312 65.1509 54.9397 62.2553 54.9397 59.3597C54.9397 56.4641 57.8312 53.5685 60.7228 53.5685Z" fill="#62808E"/>
<path d="M53.4941 47.7774C43.3736 37.6428 34.6988 31.8516 33.253 33.2994C31.8073 34.7472 37.5904 41.9862 47.7109 53.5686C20.241 53.5686 0 56.4642 0 59.3598C0 62.2554 20.241 65.151 47.7109 65.151C37.5904 75.2856 31.8073 83.9724 33.253 85.4202C34.6988 86.868 41.9278 81.0768 53.4941 70.9422C53.4941 98.4504 56.3857 118.72 59.2772 118.72C62.1688 118.72 65.0603 98.4504 65.0603 70.9422C75.1808 81.0768 83.8556 86.868 85.3013 85.4202C86.7471 83.9724 79.5182 76.7334 70.8435 65.151C98.3134 65.151 118.554 62.2554 118.554 59.3598C118.554 56.4642 98.3134 53.5686 70.8435 53.5686C80.964 43.434 86.7471 34.7472 85.3013 33.2994C83.8556 31.8516 76.6266 39.0906 65.0603 47.7774C65.0603 20.2692 62.1688 0 59.2772 0C57.8314 0 54.9398 20.2692 53.4941 47.7774ZM60.723 53.5686C63.6146 53.5686 66.5061 56.4642 66.5061 59.3598C66.5061 62.2554 63.6146 65.151 60.723 65.151C57.8314 65.151 54.9398 62.2554 54.9398 59.3598C54.9398 55.0164 56.3856 53.5686 60.723 53.5686Z" fill="#203B5D"/>
</svg>
